# xmcd CD database file
#
# Track frame offsets:
#	150
#	16222
#	37957
#	54137
#
# Disc length: 1010 seconds
#
# Revision: 0
# Processed by: cddbd v1.5.1PL0 Copyright (c) Steve Scherf et al.
# Submitted via: CDex 1.51
#
DISCID=2003f004
DTITLE=木村佳乃 - 雨の日は二人で
DYEAR=1999
DGENRE=JPop
TTITLE0=雨の日は二人で
TTITLE1=Sweetest Song
TTITLE2=雨の日は二人で (Instrumental)
TTITLE3=Sweetest Song (Instrumental)
EXTD=YEAR: 1999
EXTT0=
EXTT1=
EXTT2=
EXTT3=
PLAYORDER=
